<svg version="1.1" id="Layer_1" xmlns="http://www.w3.org/2000/svg" xmlns:xlink="http://www.w3.org/1999/xlink" x="0px" y="0px"
	 width="100%" viewBox="0 0 220 220" enable-background="new 0 0 220 220" xml:space="preserve">
<path fill="transparent" opacity="1.000000" stroke="none"
	d="
M126.000000,221.000000
	C84.000000,221.000000 42.500004,221.000000 1.000005,221.000000
	C1.000004,147.666672 1.000004,74.333344 1.000002,1.000015
	C74.333321,1.000010 147.666641,1.000010 220.999969,1.000005
	C220.999985,74.333321 220.999985,147.666641 221.000000,220.999969
	C189.500000,221.000000 158.000000,221.000000 126.000000,221.000000
M115.499680,24.944653
	C110.841095,24.946489 106.182358,24.972750 101.523994,24.941519
	C98.451546,24.920919 96.921249,26.322344 96.932129,29.459984
	C96.963852,38.610668 96.960426,47.761593 96.933029,56.912308
	C96.924347,59.813061 98.287468,61.180649 101.184616,61.173523
	C110.501717,61.150600 119.818947,61.151527 129.136063,61.172382
	C132.158646,61.179150 133.182877,59.551548 133.167862,56.743259
	C133.119873,47.759098 133.077408,38.773598 133.187851,29.790525
	C133.233810,26.052477 131.480591,24.783720 127.975235,24.913252
	C124.153770,25.054468 120.323021,24.944889 115.499680,24.944653
M133.154297,73.791779
	C133.459839,70.104866 131.683502,68.782326 128.097305,68.837677
	C119.444824,68.971222 110.787033,68.987038 102.135208,68.833916
	C98.215614,68.764542 96.824348,70.408005 96.891647,74.213432
	C97.041718,82.698883 97.065552,91.191528 96.884666,99.675774
	C96.795189,103.872841 98.611198,105.221329 102.592987,105.139893
	C110.911186,104.969772 119.240692,104.909393 127.554794,105.160347
	C132.063141,105.296425 133.326080,103.384903 133.217346,99.199249
	C133.005646,91.049507 133.155380,82.890381 133.154297,73.791779
M133.154953,119.677612
	C133.070770,112.886948 133.039810,112.840309 126.563141,112.828896
	C118.408836,112.814529 110.253304,112.907761 102.100693,112.789490
	C98.600807,112.738716 96.848671,113.917595 96.900620,117.672447
	C97.022629,126.490753 96.999413,135.312485 96.911179,144.131592
	C96.874359,147.812073 98.614830,149.124451 102.122116,149.085358
	C110.774620,148.988907 119.430840,148.947128 128.081650,149.101974
	C132.106644,149.174011 133.268051,147.299240 133.197693,143.601898
	C133.052078,135.949585 133.154587,128.292557 133.154953,119.677612
M163.470032,24.944633
	C157.813354,24.944794 152.151749,25.089006 146.501648,24.896288
	C142.495773,24.759653 140.735519,26.193991 140.827362,30.375635
	C141.013672,38.856537 140.993073,47.346550 140.830627,55.828457
	C140.758316,59.604504 142.019440,61.305111 145.997940,61.226288
	C154.645920,61.054955 163.301804,61.059284 171.950043,61.223904
	C175.911011,61.299297 177.244232,59.613739 177.135803,55.827793
	C176.959656,49.677055 177.103592,43.517532 177.085800,37.361794
	C177.045395,23.382015 178.522568,25.015076 163.470032,24.944633
M85.133743,149.049515
	C88.498154,149.088440 89.273674,147.044266 89.256599,144.149643
	C89.204582,135.329391 89.147797,126.507263 89.280701,117.688698
	C89.336647,113.976265 87.743210,112.720192 84.167770,112.779701
	C75.516014,112.923683 66.858482,112.930489 58.206928,112.780998
	C54.279037,112.713127 52.886436,114.422668 52.943726,118.185013
	C53.067879,126.337990 53.158951,134.499527 52.913025,142.646973
	C52.771645,147.330780 54.356735,149.291397 59.232307,149.130356
	C67.544533,148.855820 75.872391,149.054520 85.133743,149.049515
M141.106201,114.999832
	C141.032440,124.814621 140.986481,134.629745 140.868622,144.444000
	C140.831390,147.544800 142.174393,149.071121 145.326614,149.060776
	C154.481293,149.030762 163.644089,149.240189 172.782852,148.857529
	C174.270035,148.795258 176.828827,146.245880 176.889191,144.764465
	C177.268280,135.458740 177.243057,126.123924 176.901810,116.815224
	C176.851547,115.444183 174.452789,113.061966 173.075134,113.013611
	C163.599442,112.681046 154.105881,112.804115 144.619461,112.907516
	C143.586914,112.918777 142.563202,113.738258 141.106201,114.999832
M118.482407,193.026291
	C121.643135,193.025925 124.806694,192.941605 127.963844,193.047760
	C131.431168,193.164352 133.232971,191.882370 133.187424,188.142105
	C133.078033,179.160309 133.101151,170.175873 133.175812,161.193375
	C133.202438,157.988983 131.768463,156.732986 128.639236,156.759109
	C119.656761,156.834061 110.672676,156.841446 101.690392,156.754669
	C98.318748,156.722107 96.870316,158.112778 96.907928,161.520004
	C97.005249,170.335693 97.002968,179.153839 96.909760,187.969635
	C96.871597,191.579376 98.459412,193.112000 102.018211,193.048264
	C107.173531,192.955917 112.331741,193.025696 118.482407,193.026291
M89.241280,86.500839
	C89.239395,82.176086 89.146561,77.848854 89.264458,73.527367
	C89.358574,70.077744 87.793221,68.805130 84.436356,68.846214
	C75.621826,68.954132 66.804565,68.938576 57.989529,68.853882
	C54.717762,68.822441 52.968258,70.064125 52.978195,73.481087
	C53.004311,82.463188 52.996258,91.445427 52.981308,100.427582
	C52.976303,103.435982 54.254009,105.102837 57.439362,105.092728
	C66.587776,105.063683 75.736656,105.040962 84.884705,105.106606
	C88.139809,105.129959 89.308945,103.527412 89.255074,100.472832
	C89.178818,96.149460 89.239349,91.823685 89.241280,86.500839
M89.241570,172.506134
	C89.238693,168.680435 89.192154,164.854126 89.247208,161.029251
	C89.288780,158.140106 88.038010,156.751892 85.068733,156.768616
	C75.920616,156.820145 66.771576,156.837967 57.623837,156.759232
	C54.137775,156.729233 52.940048,158.457062 52.962524,161.699631
	C53.023636,170.514969 53.010021,179.331100 52.971466,188.146683
	C52.957047,191.443680 54.437729,193.050598 57.786633,193.035965
	C66.768539,192.996735 75.750801,193.002167 84.732788,193.031357
	C87.841637,193.041473 89.291740,191.611359 89.251060,188.473755
	C89.186386,183.484589 89.238808,178.493912 89.241570,172.506134
M83.785767,27.641487
	C74.821159,21.442730 65.491554,21.604111 58.132774,28.085228
	C51.172543,34.215321 49.153763,44.032551 53.463860,52.133385
	C57.409279,59.548805 63.754807,63.420818 72.181320,62.992981
	C80.586823,62.566216 86.713440,58.194691 89.729271,50.356064
	C92.983391,41.898109 90.908653,34.367638 83.785767,27.641487
z"/>
<path fill="#3FA14C" opacity="1.000000" stroke="none"
	d="
M115.998001,24.944645
	C120.323021,24.944889 124.153770,25.054468 127.975235,24.913252
	C131.480591,24.783720 133.233810,26.052477 133.187851,29.790525
	C133.077408,38.773598 133.119873,47.759098 133.167862,56.743259
	C133.182877,59.551548 132.158646,61.179150 129.136063,61.172382
	C119.818947,61.151527 110.501717,61.150600 101.184616,61.173523
	C98.287468,61.180649 96.924347,59.813061 96.933029,56.912308
	C96.960426,47.761593 96.963852,38.610668 96.932129,29.459984
	C96.921249,26.322344 98.451546,24.920919 101.523994,24.941519
	C106.182358,24.972750 110.841095,24.946489 115.998001,24.944645
z"/>
<path fill="#3FA14C" opacity="1.000000" stroke="none"
	d="
M133.154846,74.263458
	C133.155380,82.890381 133.005646,91.049507 133.217346,99.199249
	C133.326080,103.384903 132.063141,105.296425 127.554794,105.160347
	C119.240692,104.909393 110.911186,104.969772 102.592987,105.139893
	C98.611198,105.221329 96.795189,103.872841 96.884666,99.675774
	C97.065552,91.191528 97.041718,82.698883 96.891647,74.213432
	C96.824348,70.408005 98.215614,68.764542 102.135208,68.833916
	C110.787033,68.987038 119.444824,68.971222 128.097305,68.837677
	C131.683502,68.782326 133.459839,70.104866 133.154846,74.263458
z"/>
<path fill="#3FA14C" opacity="1.000000" stroke="none"
	d="
M133.154999,120.157539
	C133.154587,128.292557 133.052078,135.949585 133.197693,143.601898
	C133.268051,147.299240 132.106644,149.174011 128.081650,149.101974
	C119.430840,148.947128 110.774620,148.988907 102.122116,149.085358
	C98.614830,149.124451 96.874359,147.812073 96.911179,144.131592
	C96.999413,135.312485 97.022629,126.490753 96.900620,117.672447
	C96.848671,113.917595 98.600807,112.738716 102.100693,112.789490
	C110.253304,112.907761 118.408836,112.814529 126.563141,112.828896
	C133.039810,112.840309 133.070770,112.886948 133.154999,120.157539
z"/>
<path fill="#3FA14C" opacity="1.000000" stroke="none"
	d="
M163.963684,24.944626
	C178.522568,25.015076 177.045395,23.382015 177.085800,37.361794
	C177.103592,43.517532 176.959656,49.677055 177.135803,55.827793
	C177.244232,59.613739 175.911011,61.299297 171.950043,61.223904
	C163.301804,61.059284 154.645920,61.054955 145.997940,61.226288
	C142.019440,61.305111 140.758316,59.604504 140.830627,55.828457
	C140.993073,47.346550 141.013672,38.856537 140.827362,30.375635
	C140.735519,26.193991 142.495773,24.759653 146.501648,24.896288
	C152.151749,25.089006 157.813354,24.944794 163.963684,24.944626
z"/>
<path fill="#3FA14C" opacity="1.000000" stroke="none"
	d="
M84.663712,149.051971
	C75.872391,149.054520 67.544533,148.855820 59.232307,149.130356
	C54.356735,149.291397 52.771645,147.330780 52.913025,142.646973
	C53.158951,134.499527 53.067879,126.337990 52.943726,118.185013
	C52.886436,114.422668 54.279037,112.713127 58.206928,112.780998
	C66.858482,112.930489 75.516014,112.923683 84.167770,112.779701
	C87.743210,112.720192 89.336647,113.976265 89.280701,117.688698
	C89.147797,126.507263 89.204582,135.329391 89.256599,144.149643
	C89.273674,147.044266 88.498154,149.088440 84.663712,149.051971
z"/>
<path fill="#3FA14C" opacity="1.000000" stroke="none"
	d="
M141.320801,114.591339
	C142.563202,113.738258 143.586914,112.918777 144.619461,112.907516
	C154.105881,112.804115 163.599442,112.681046 173.075134,113.013611
	C174.452789,113.061966 176.851547,115.444183 176.901810,116.815224
	C177.243057,126.123924 177.268280,135.458740 176.889191,144.764465
	C176.828827,146.245880 174.270035,148.795258 172.782852,148.857529
	C163.644089,149.240189 154.481293,149.030762 145.326614,149.060776
	C142.174393,149.071121 140.831390,147.544800 140.868622,144.444000
	C140.986481,134.629745 141.032440,124.814621 141.320801,114.591339
z"/>
<path fill="#3FA14C" opacity="1.000000" stroke="none"
	d="
M117.985565,193.026306
	C112.331741,193.025696 107.173531,192.955917 102.018211,193.048264
	C98.459412,193.112000 96.871597,191.579376 96.909760,187.969635
	C97.002968,179.153839 97.005249,170.335693 96.907928,161.520004
	C96.870316,158.112778 98.318748,156.722107 101.690392,156.754669
	C110.672676,156.841446 119.656761,156.834061 128.639236,156.759109
	C131.768463,156.732986 133.202438,157.988983 133.175812,161.193375
	C133.101151,170.175873 133.078033,179.160309 133.187424,188.142105
	C133.232971,191.882370 131.431168,193.164352 127.963844,193.047760
	C124.806694,192.941605 121.643135,193.025925 117.985565,193.026306
z"/>
<path fill="#3FA14C" opacity="1.000000" stroke="none"
	d="
M89.241348,86.999886
	C89.239349,91.823685 89.178818,96.149460 89.255074,100.472832
	C89.308945,103.527412 88.139809,105.129959 84.884705,105.106606
	C75.736656,105.040962 66.587776,105.063683 57.439362,105.092728
	C54.254009,105.102837 52.976303,103.435982 52.981308,100.427582
	C52.996258,91.445427 53.004311,82.463188 52.978195,73.481087
	C52.968258,70.064125 54.717762,68.822441 57.989529,68.853882
	C66.804565,68.938576 75.621826,68.954132 84.436356,68.846214
	C87.793221,68.805130 89.358574,70.077744 89.264458,73.527367
	C89.146561,77.848854 89.239395,82.176086 89.241348,86.999886
z"/>
<path fill="#3FA14C" opacity="1.000000" stroke="none"
	d="
M89.241638,173.005005
	C89.238808,178.493912 89.186386,183.484589 89.251060,188.473755
	C89.291740,191.611359 87.841637,193.041473 84.732788,193.031357
	C75.750801,193.002167 66.768539,192.996735 57.786633,193.035965
	C54.437729,193.050598 52.957047,191.443680 52.971466,188.146683
	C53.010021,179.331100 53.023636,170.514969 52.962524,161.699631
	C52.940048,158.457062 54.137775,156.729233 57.623837,156.759232
	C66.771576,156.837967 75.920616,156.820145 85.068733,156.768616
	C88.038010,156.751892 89.288780,158.140106 89.247208,161.029251
	C89.192154,164.854126 89.238693,168.680435 89.241638,173.005005
z"/>
<path fill="#CF3336" opacity="1.000000" stroke="none"
	d="
M84.070175,27.868992
	C90.908653,34.367638 92.983391,41.898109 89.729271,50.356064
	C86.713440,58.194691 80.586823,62.566216 72.181320,62.992981
	C63.754807,63.420818 57.409279,59.548805 53.463860,52.133385
	C49.153763,44.032551 51.172543,34.215321 58.132774,28.085228
	C65.491554,21.604111 74.821159,21.442730 84.070175,27.868992
z"/>
</svg>